<?xml version="1.0" encoding="UTF-8" standalone="no"?>
<svg
   xmlns:dc="http://purl.org/dc/elements/1.1/"
   xmlns:cc="http://creativecommons.org/ns#"
   xmlns:rdf="http://www.w3.org/1999/02/22-rdf-syntax-ns#"
   xmlns:svg="http://www.w3.org/2000/svg"
   xmlns="http://www.w3.org/2000/svg"
   viewBox="0 0 376 376"
   height="376"
   width="376"
   xml:space="preserve"
   id="svg2"
   version="1.1"><metadata
     id="metadata8"><rdf:RDF><cc:Work
         rdf:about=""><dc:format>image/svg+xml</dc:format><dc:type
           rdf:resource="http://purl.org/dc/dcmitype/StillImage" /><dc:title></dc:title></cc:Work></rdf:RDF></metadata><defs
     id="defs6"><clipPath
       id="clipPath20"
       clipPathUnits="userSpaceOnUse"><path
         style="clip-rule:evenodd"
         id="path18"
         d="M 7.08594,2814.28 H 2815.8 V 5.55859 H 7.08594 Z" /></clipPath></defs><g
     transform="matrix(1.3333333,0,0,-1.3333333,0,376)"
     id="g10"><g
       transform="scale(0.1)"
       id="g12"><g
         id="g14"><g
           clip-path="url(#clipPath20)"
           id="g16"><path
             id="path22"
             style="fill:#231f20;fill-opacity:1;fill-rule:evenodd;stroke:none"
             d="M 2814.72,1424.32 1397.04,2813.2 8.16406,1396.24 1397.04,6.64063 2814.72,1424.32" /><path
             id="path24"
             style="fill:none;stroke:#231f20;stroke-width:2.16000009;stroke-linecap:butt;stroke-linejoin:miter;stroke-miterlimit:10;stroke-dasharray:none;stroke-opacity:1"
             d="M 2814.72,1424.32 1397.04,2813.2 8.16406,1396.24 1397.04,6.64063 Z" /><path
             id="path26"
             style="fill:#326152;fill-opacity:1;fill-rule:evenodd;stroke:none"
             d="m 2672.88,1424.32 h 84.96 L 1397.04,63.5195 V 148.48 l 1275.84,1275.84" /><path
             id="path28"
             style="fill:none;stroke:#231f20;stroke-width:2.16000009;stroke-linecap:butt;stroke-linejoin:miter;stroke-miterlimit:10;stroke-dasharray:none;stroke-opacity:1"
             d="m 2672.88,1424.32 h 84.96 L 1397.04,63.5195 V 148.48 Z" /><path
             id="path30"
             style="fill:#396e5c;fill-opacity:1;fill-rule:evenodd;stroke:none"
             d="M 65.0391,1396.24 H 150 L 1397.04,148.48 V 63.5195 L 65.0391,1396.24" /><path
             id="path32"
             style="fill:none;stroke:#231f20;stroke-width:2.16000009;stroke-linecap:butt;stroke-linejoin:miter;stroke-miterlimit:10;stroke-dasharray:none;stroke-opacity:1"
             d="M 65.0391,1396.24 H 150 L 1397.04,148.48 V 63.5195 Z" /><path
             id="path34"
             style="fill:#66caa6;fill-opacity:1;fill-rule:evenodd;stroke:none"
             d="m 1397.04,2672.08 v 84.24 L 65.0391,1396.24 H 150 l 1247.04,1275.84" /><path
             id="path36"
             style="fill:none;stroke:#231f20;stroke-width:2.16000009;stroke-linecap:butt;stroke-linejoin:miter;stroke-miterlimit:10;stroke-dasharray:none;stroke-opacity:1"
             d="m 1397.04,2672.08 v 84.24 L 65.0391,1396.24 H 150 Z" /><path
             id="path38"
             style="fill:#45bb3c;fill-opacity:1;fill-rule:evenodd;stroke:none"
             d="m 1397.04,2756.32 v -84.24 L 2672.88,1424.32 h 84.96 l -1360.8,1332" /><path
             id="path40"
             style="fill:none;stroke:#231f20;stroke-width:2.16000009;stroke-linecap:butt;stroke-linejoin:miter;stroke-miterlimit:10;stroke-dasharray:none;stroke-opacity:1"
             d="m 1397.04,2756.32 v -84.24 L 2672.88,1424.32 h 84.96 z" /><path
             id="path42"
             style="fill:#42826c;fill-opacity:1;fill-rule:evenodd;stroke:none"
             d="M 1397.04,148.48 2672.88,1424.32 1397.04,2672.08 150,1396.24 1397.04,148.48" /><path
             id="path44"
             style="fill:none;stroke:#231f20;stroke-width:2.16000009;stroke-linecap:butt;stroke-linejoin:miter;stroke-miterlimit:10;stroke-dasharray:none;stroke-opacity:1"
             d="M 1397.04,148.48 2672.88,1424.32 1397.04,2672.08 150,1396.24 Z" /><path
             id="path46"
             style="fill:#231f20;fill-opacity:1;fill-rule:evenodd;stroke:none"
             d="m 1662,2388.4 84.96,-85.67 L 1160.88,1708 v 594.73 h 56.89 l 84.95,85.67 v 226.08 l -84.95,85.68 H 273.113 l -84.949,-85.68 V 2388.4 l 84.949,-85.67 h 66.242 V 375.281 L 443.035,290.32 H 736.086 L 2767.2,2388.4 v 226.08 l -84.95,85.68 H 1756.32 L 1662,2614.48 V 2388.4" /><path
             id="path48"
             style="fill:none;stroke:#231f20;stroke-width:2.16000009;stroke-linecap:butt;stroke-linejoin:miter;stroke-miterlimit:10;stroke-dasharray:none;stroke-opacity:1"
             d="m 1662,2388.4 84.96,-85.67 L 1160.88,1708 v 594.73 h 56.89 l 84.95,85.67 v 226.08 l -84.95,85.68 H 273.113 l -84.949,-85.68 V 2388.4 l 84.949,-85.67 h 66.242 V 375.281 L 443.035,290.32 H 736.086 L 2767.2,2388.4 v 226.08 l -84.95,85.68 H 1756.32 L 1662,2614.48 Z" /><path
             id="path50"
             style="fill:#ffffff;fill-opacity:1;fill-rule:evenodd;stroke:none"
             d="m 301.199,2359.6 -56.883,56.88 v 169.91 l 56.883,56.89 888.481,0.72 56.16,-57.61 -56.16,-27.35 -28.8,27.35 -859.681,-141.11 v -85.68" /><path
             id="path52"
             style="fill:none;stroke:#231f20;stroke-width:2.16000009;stroke-linecap:butt;stroke-linejoin:miter;stroke-miterlimit:10;stroke-dasharray:none;stroke-opacity:1"
             d="m 301.199,2359.6 -56.883,56.88 v 169.91 l 56.883,56.89 888.481,0.72 56.16,-57.61 -56.16,-27.35 -28.8,27.35 -859.681,-141.11 z" /><path
             id="path54"
             style="fill:#ffffff;fill-opacity:1;fill-rule:evenodd;stroke:none"
             d="m 471.121,347.199 -66.238,56.879 V 2360.32 l 66.238,56.16 V 347.199" /><path
             id="path56"
             style="fill:none;stroke:#231f20;stroke-width:2.16000009;stroke-linecap:butt;stroke-linejoin:miter;stroke-miterlimit:10;stroke-dasharray:none;stroke-opacity:1"
             d="m 471.121,347.199 -66.238,56.879 V 2360.32 l 66.238,56.16 z" /><path
             id="path58"
             style="fill:#ffffff;fill-opacity:1;fill-rule:evenodd;stroke:none"
             d="m 1888.8,2359.6 56.88,56.88 v -113.76 l -945.36,-963.36 104.4,226.8 784.08,793.44" /><path
             id="path60"
             style="fill:none;stroke:#231f20;stroke-width:2.16000009;stroke-linecap:butt;stroke-linejoin:miter;stroke-miterlimit:10;stroke-dasharray:none;stroke-opacity:1"
             d="m 1888.8,2359.6 56.88,56.88 v -113.76 l -945.36,-963.36 104.4,226.8 z" /><path
             id="path62"
             style="fill:#918f8f;fill-opacity:1;fill-rule:evenodd;stroke:none"
             d="m 490.559,2444.56 -19.438,-28.08 -66.238,-56.88 H 301.199 v 113.76 l 189.36,-28.8" /><path
             id="path64"
             style="fill:none;stroke:#231f20;stroke-width:2.16000009;stroke-linecap:butt;stroke-linejoin:miter;stroke-miterlimit:10;stroke-dasharray:none;stroke-opacity:1"
             d="m 490.559,2444.56 -19.438,-28.08 -66.238,-56.88 H 301.199 v 113.76 z" /><path
             id="path66"
             style="fill:#918f8f;fill-opacity:1;fill-rule:evenodd;stroke:none"
             d="m 1104.72,2359.61 v -793.45 l -104.4,-226.08 V 2417.2 h 160.56 l 28.8,28.09 -28.8,141.11 h 84.96 v -169.91 l -56.16,-56.88 h -84.96" /><path
             id="path68"
             style="fill:none;stroke:#231f20;stroke-width:2.16000009;stroke-linecap:butt;stroke-linejoin:miter;stroke-miterlimit:10;stroke-dasharray:none;stroke-opacity:1"
             d="m 1104.72,2359.61 v -793.45 l -104.4,-226.08 V 2417.2 h 160.56 l 28.8,28.09 -28.8,141.11 h 84.96 v -169.91 l -56.16,-56.88 z" /><path
             id="path70"
             style="fill:#ffffff;fill-opacity:1;fill-rule:evenodd;stroke:none"
             d="m 1775.04,2359.6 -56.16,56.88 v 169.91 l 65.52,56.89 h 860.4 l 66.24,-56.89 -95.04,-84.96 -840.96,-56.15 v -85.68" /><path
             id="path72"
             style="fill:none;stroke:#231f20;stroke-width:2.16000009;stroke-linecap:butt;stroke-linejoin:miter;stroke-miterlimit:10;stroke-dasharray:none;stroke-opacity:1"
             d="m 1775.04,2359.6 -56.16,56.88 v 169.91 l 65.52,56.89 h 860.4 l 66.24,-56.89 -95.04,-84.96 -840.96,-56.15 z" /><path
             id="path74"
             style="fill:#918f8f;fill-opacity:1;fill-rule:evenodd;stroke:none"
             d="M 2711.04,2416.49 716.641,347.199 H 471.121 V 432.16 H 651.125 L 2644.8,2473.36 2616,2586.4 h 95.04 v -169.91" /><path
             id="path76"
             style="fill:none;stroke:#231f20;stroke-width:2.16000009;stroke-linecap:butt;stroke-linejoin:miter;stroke-miterlimit:10;stroke-dasharray:none;stroke-opacity:1"
             d="M 2711.04,2416.49 716.641,347.199 H 471.121 V 432.16 H 651.125 L 2644.8,2473.36 2616,2586.4 h 95.04 z" /><path
             id="path78"
             style="fill:#918f8f;fill-opacity:1;fill-rule:evenodd;stroke:none"
             d="m 1964.4,2444.56 -19.44,-28.08 -56.16,-56.88 h -113.76 v 113.76 l 189.36,-28.8" /><path
             id="path80"
             style="fill:none;stroke:#231f20;stroke-width:2.16000009;stroke-linecap:butt;stroke-linejoin:miter;stroke-miterlimit:10;stroke-dasharray:none;stroke-opacity:1"
             d="m 1964.4,2444.56 -19.44,-28.08 -56.16,-56.88 h -113.76 v 113.76 z" /><path
             id="path82"
             style="fill:#d3d2d2;fill-opacity:1;fill-rule:evenodd;stroke:none"
             d="M 1000.32,1340.08 V 2417.2 h 160.56 l 28.8,28.09 v 113.75 l -28.8,28.08 H 329.277 l -28.078,-28.08 v -113.75 l 28.078,-28.09 H 471.121 V 432.16 l 36.723,-28.078 h 162 L 2654.16,2473.36 v 81.36 l -28.8,32.4 h -821.52 l -28.8,-28.08 v -114.48 l 28.8,-28.08 h 141.84 v -113.75 l -945.36,-962.65" /><path
             id="path84"
             style="fill:none;stroke:#231f20;stroke-width:2.16000009;stroke-linecap:butt;stroke-linejoin:miter;stroke-miterlimit:10;stroke-dasharray:none;stroke-opacity:1"
             d="M 1000.32,1340.08 V 2417.2 h 160.56 l 28.8,28.09 v 113.75 l -28.8,28.08 H 329.277 l -28.078,-28.08 v -113.75 l 28.078,-28.09 H 471.121 V 432.16 l 36.723,-28.078 h 162 L 2654.16,2473.36 v 81.36 l -28.8,32.4 h -821.52 l -28.8,-28.08 v -114.48 l 28.8,-28.08 h 141.84 v -113.75 z" /><path
             id="path86"
             style="fill:#231f20;fill-opacity:1;fill-rule:evenodd;stroke:none"
             d="m 1515.84,1338.64 66.24,56.88 H 1752 l 47.52,-56.88 -56.88,-169.92 -65.52,-56.88 H 1507.2 l -48.24,56.88 56.88,169.92" /><path
             id="path88"
             style="fill:none;stroke:#231f20;stroke-width:2.16000009;stroke-linecap:butt;stroke-linejoin:miter;stroke-miterlimit:10;stroke-dasharray:none;stroke-opacity:1"
             d="m 1515.84,1338.64 66.24,56.88 H 1752 l 47.52,-56.88 -56.88,-169.92 -65.52,-56.88 H 1507.2 l -48.24,56.88 z" /><path
             id="path90"
             style="fill:#231f20;fill-opacity:1;fill-rule:evenodd;stroke:none"
             d="m 1572.72,403.359 170.64,509.762 h -56.88 l 56.88,170.639 h 254.16 l 56.88,-56.88 h 38.16 l 56.16,56.88 h 189.36 l 56.88,-56.88 h 37.44 l 56.88,56.88 h 207.36 L 2772.24,970 2648.4,566.801 h 56.16 l -54.72,-163.442 h -340.56 l 133.2,396.719 h -84.96 l -78.48,-231.84 h 56.16 l -53.28,-164.879 h -340.56 l 132.48,396.719 h -84.96 l -79.2,-233.277 h 56.88 l -53.28,-163.442 h -340.56" /><path
             id="path92"
             style="fill:none;stroke:#231f20;stroke-width:2.16000009;stroke-linecap:butt;stroke-linejoin:miter;stroke-miterlimit:10;stroke-dasharray:none;stroke-opacity:1"
             d="m 1572.72,403.359 170.64,509.762 h -56.88 l 56.88,170.639 h 254.16 l 56.88,-56.88 h 38.16 l 56.16,56.88 h 189.36 l 56.88,-56.88 h 37.44 l 56.88,56.88 h 207.36 L 2772.24,970 2648.4,566.801 h 56.16 l -54.72,-163.442 h -340.56 l 133.2,396.719 h -84.96 l -78.48,-231.84 h 56.16 l -53.28,-164.879 h -340.56 l 132.48,396.719 h -84.96 l -79.2,-233.277 h 56.88 l -53.28,-163.442 z" /><path
             id="path94"
             style="fill:#d3d2d2;fill-opacity:1;fill-rule:evenodd;stroke:none"
             d="m 2670.72,1026.88 43.92,-62.642 -139.68,-447.84 h 56.16 l -18.72,-56.16 h -226.8 l 132.48,396.723 H 2319.36 L 2206.32,516.398 h 56.16 l -18.72,-56.16 h -226.8 l 132.48,396.723 H 1950.72 L 1837.68,516.398 h 56.88 l -19.44,-56.16 h -226.8 L 1818.96,970 h -56.88 l 18.72,56.88 h 208.08 L 2045.76,970 h 56.16 l 56.88,56.88 h 169.92 L 2385.6,970 h 56.88 l 56.88,56.88 h 171.36" /><path
             id="path96"
             style="fill:none;stroke:#231f20;stroke-width:2.16000009;stroke-linecap:butt;stroke-linejoin:miter;stroke-miterlimit:10;stroke-dasharray:none;stroke-opacity:1"
             d="m 2670.72,1026.88 43.92,-62.642 -139.68,-447.84 h 56.16 l -18.72,-56.16 h -226.8 l 132.48,396.723 H 2319.36 L 2206.32,516.398 h 56.16 l -18.72,-56.16 h -226.8 l 132.48,396.723 H 1950.72 L 1837.68,516.398 h 56.88 l -19.44,-56.16 h -226.8 L 1818.96,970 h -56.88 l 18.72,56.88 h 208.08 L 2045.76,970 h 56.16 l 56.88,56.88 h 169.92 L 2385.6,970 h 56.88 l 56.88,56.88 z" /><path
             id="path98"
             style="fill:#231f20;fill-opacity:1;fill-rule:evenodd;stroke:none"
             d="M 1714.56,1083.76 1541.04,567.52 h 59.04 L 1543.92,403.359 H 1204.08 L 1374,913.121 h -56.88 z M 1317.12,913.121 1374,1083.76 h 340.56 z" /><path
             id="path100"
             style="fill:none;stroke:#231f20;stroke-width:2.16000009;stroke-linecap:butt;stroke-linejoin:miter;stroke-miterlimit:10;stroke-dasharray:none;stroke-opacity:1"
             d="M 1714.56,1083.76 1541.04,567.52 h 59.04 L 1543.92,403.359 H 1204.08 L 1374,913.121 h -56.88 z M 1317.12,913.121 1374,1083.76 h 340.56 z" /><path
             id="path102"
             style="fill:#d3d2d2;fill-opacity:1;fill-rule:evenodd;stroke:none"
             d="m 1506.48,460.238 18.72,56.16 h -56.88 l 170.64,510.482 H 1402.8 L 1383.36,970 h 66.24 L 1279.68,460.238 h 226.8" /><path
             id="path104"
             style="fill:none;stroke:#231f20;stroke-width:2.16000009;stroke-linecap:butt;stroke-linejoin:miter;stroke-miterlimit:10;stroke-dasharray:none;stroke-opacity:1"
             d="m 1506.48,460.238 18.72,56.16 h -56.88 l 170.64,510.482 H 1402.8 L 1383.36,970 h 66.24 L 1279.68,460.238 Z" /><path
             id="path106"
             style="fill:#d3d2d2;fill-opacity:1;fill-rule:evenodd;stroke:none"
             d="m 1695.12,1196.8 38.16,113.76 -18.72,28.08 H 1600.8 l -37.44,-28.08 -38.16,-113.76 19.44,-28.08 h 113.76 l 36.72,28.08" /><path
             id="path108"
             style="fill:none;stroke:#231f20;stroke-width:2.16000009;stroke-linecap:butt;stroke-linejoin:miter;stroke-miterlimit:10;stroke-dasharray:none;stroke-opacity:1"
             d="m 1695.12,1196.8 38.16,113.76 -18.72,28.08 H 1600.8 l -37.44,-28.08 -38.16,-113.76 19.44,-28.08 h 113.76 z" /></g></g></g></g></svg>